<svg xmlns="http://www.w3.org/2000/svg" viewBox="0 0 100 100"><rect width="100" height="100" rx="16" fill="#a6ecc7"/><g transform="translate(23.24 85.00) scale(0.1004)" fill="#111"><path d="M225 10L225 10Q171 10 126.50-17.50Q82-45 55-90.50Q28-136 28-191L28-191L29-508Q29-563 55.50-607.50Q82-652 126.50-679.50Q171-707 224-707L224-707L288-707Q345-707 389.50-679Q434-651 459.50-605Q485-559 484-505L484-505L483-360Q483-307 468-264Q453-221 420-196Q387-171 331-171L331-171Q264-171 229.50-224.50Q195-278 195-360L195-360L195-491Q195-494 199-494L199-494L307-494Q310-494 310-491L310-491L310-357Q310-314 315.50-296Q321-278 335-278L335-278Q352-278 356.50-294.50Q361-311 361-357L361-357L362-508Q362-541 341-564Q320-587 288-587L288-587L224-587Q193-586 171.50-563.50Q150-541 150-508L150-508L150-191Q150-158 172-141.50Q194-125 225-125L225-125Q283-125 357.50-126.50Q432-128 500-134L500-134Q505-134 505-129L505-129L505-5Q505-1 500 0L500 0Q490 1 460.50 2.50Q431 4 390.50 6Q350 8 306.50 9Q263 10 225 10Z"/></g></svg>