<?xml version="1.0" encoding="UTF-8"?>
<svg id="Layer_31" data-name="Layer 31" xmlns="http://www.w3.org/2000/svg" viewBox="0 0 520 520">
  <defs>
    <style>
      .cls-1 {
        fill: #231f20;
      }
    </style>
  </defs>
  <path class="cls-1" d="M359.47,228.88l6.8,2.28c.83,.28,1.71,.53,2.53,.89,2.91,1.26,5.7,2.85,8.11,4.91,1.08,.9,2.13,1.85,3.05,2.9,1.22,1.32,2.07,2.97,2.61,4.65,.17,.52,.08,.48-.26,.13-.22-.22-.46-.46-.69-.69-.31-.27-.65-.58-.98-.93-.31-.3-.6-.61-.92-.89l-.49-.41c-.14-.15-.28-.31-.43-.45-.59-.58-1.22-1.14-1.87-1.66-1.3-1.05-2.72-1.96-4.15-2.9-1.72-1.13-3.77-1.86-5.77-2.55-2.2-.78-4.5-1.47-6.8-2.19-1.42-.45-2.84-.91-4.25-1.39-2.14-.73-4.25-1.59-6.34-2.45-1.63-.64-3.24-1.27-4.82-2.02-.34-.17-.7-.31-1.02-.52-1.21-.77-1.49-1.2-1.43-1.87,.01-.15,0-.32,.05-.45,.13-.45,.83-.5,1.81-.19,2.92,.92,5.75,2.14,8.66,3.33,2.16,.86,4.37,1.67,6.64,2.39l-.02,.07Z"/>
  <path class="cls-1" d="M464.62,371.99c-.38,1.84-.77,3.67-1.2,5.5-.41,1.83-.85,3.66-1.3,5.48-.31,1.33-.57,2.68-.94,4-1.27,4.66-2.79,9.25-4.41,13.8-.69,2.02-1.41,4.06-2.17,6.04-.91,2.58-2.28,4.99-3.7,7.33-.45,.73-.49,.58-.4-.17,.1-.74,.21-2.13,.59-3.65l.46-2.03c.15-.67,.41-1.31,.62-1.96,.4-1.31,.78-2.63,1.28-3.91,.9-2.6,1.8-5.2,2.7-7.82,1.11-3.13,1.78-6.53,2.64-9.82l1.33-5.45c.4-1.83,.84-3.65,1.21-5.48,.47-2.26,.94-4.52,1.34-6.79,.64-3.43,1.18-6.9,1.67-10.33,.36-2.67,.55-5.31,.79-7.96,.05-.58,.1-1.16,.15-1.74,.21-2.18,.6-2.85,1.09-3.28,.11-.1,.22-.23,.32-.28,.17-.09,.29,.09,.42,.5,.12,.41,.28,1.06,.3,1.87,.06,1.21,.03,2.43,0,3.66-.03,1.23-.06,2.48-.14,3.73-.16,2.5-.28,5.04-.67,7.56-.54,3.74-1.2,7.48-1.91,11.2h-.07Z"/>
  <path class="cls-1" d="M439,317.23s0-38.82,8.75-43.68c5.55-3.08,18.78,35.49,18.69,46.65-.11,12.75-1.72,39.34-1.72,39.34l-25.72-42.31Z"/>
  <path class="cls-1" d="M455.21,407.19c-10.66,17.81-13.64,21.23-19.22,16.42-10.5-9.04-4.14-48.35-4.14-48.35l23.36,31.93Z"/>
  <path class="cls-1" d="M281.6,91.69c-6.18-.69-12.38-1.35-18.61-1.63-2.27-.12-4.55-.12-6.82-.17-8.01-.3-16.05-.25-24.07,.24-3.56,.18-7.12,.64-10.63,1.02-2.25,.33-4.5,.66-6.75,.99-2.25,.32-4.49,.7-6.77,.85-1.44,0-1.37-.63-.33-1.63,1.04-.99,3.11-2.18,5.71-2.73l6.97-1.17c2.33-.31,4.67-.63,7.02-.85,2.35-.2,4.71-.31,7.07-.44,2.36-.12,4.73-.1,7.1-.12,2.83-.03,5.72,0,8.63-.11,2.9-.06,5.82-.05,8.72-.04,6.36,.2,12.73,.54,19.06,1.19,1.95,.21,3.9,.37,5.84,.62l5.82,.75c2.94,.38,5.86,.91,8.79,1.35,2.92,.53,5.83,1.05,8.72,1.57,2.24,.45,4.48,.83,6.71,1.2,2.22,.41,4.44,.86,6.67,1.3,.98,.19,1.95,.36,2.92,.63,3.58,1.09,4.63,1.73,5.08,2.98,.1,.28,.27,.57,.3,.81,.12,.79-1.55,1.12-4.22,.71-3.96-.62-7.95-1.45-12.01-2.27-2.04-.37-4.08-.77-6.13-1.18-2.05-.39-4.13-.72-6.2-1.1l-2.31-.41-2.32-.35-4.64-.72c-3.11-.42-6.22-.83-9.34-1.18v-.11Z"/>
  <path class="cls-1" d="M220.25,434.2c-5.36-.37-10.71-.84-16.05-1.37-1.95-.19-3.91-.28-5.85-.51-6.86-.83-13.7-1.88-20.47-3.37-3.01-.64-6.04-1.26-9.01-2.02-1.91-.49-3.82-1.06-5.69-1.82-1.85-.75-3.76-1.75-5.01-3.56-.38-.56-.44-.87-.34-.92,.12-.07,.42,.08,.95,.24,.53,.16,1.31,.23,2.17,.35,.43,.06,.91,.08,1.38,.17,.46,.11,.94,.25,1.43,.41,1.75,.6,3.61,1.05,5.47,1.48,1.86,.45,3.76,.84,5.67,1.22,3.82,.75,7.69,1.39,11.59,2.12,4.66,.94,9.6,1.24,14.44,1.71,5.32,.52,10.66,.97,16.01,1.31,3.29,.21,6.59,.4,9.88,.52,4.99,.18,10.01,.35,14.96,.21,3.85-.11,7.61-.51,11.37-.94,.82-.11,1.63-.21,2.46-.32,3.07-.28,4.03-.03,4.86,.91,.19,.22,.43,.42,.57,.64,.47,.73-.73,1.72-3.06,2.37-3.45,.88-7,1.24-10.59,1.53-3.6,.29-7.24,.31-10.88,.31-5.41-.03-10.84-.27-16.25-.56v-.11Z"/>
  <path class="cls-1" d="M162.75,402.69s-16.03,3.93-17.72,10.44c-1.69,6.51,21.73,15.03,21.73,15.03l-4-25.47Z"/>
  <path class="cls-1" d="M272.84,427.68s15.94-2.99,16.48-10.46-16.48-10.3-16.48-10.3v20.76Z"/>
  <path class="cls-1" d="M165.78,366.06c.19,4.54,.32,9.08,.41,13.61,.04,1.66,.15,3.31,.17,4.96,.07,5.83,0,11.67-.14,17.5-.04,2.59-.04,5.19-.03,7.75-.04,3.3-.06,6.61-.52,9.89-.16,1.02-.47,.87-.88,0-.43-.88-.95-2.49-1.03-4.38-.08-1.68-.17-3.35-.21-5.03,0-1.68,0-3.35,0-5.03,0-3.36,.06-6.72,.15-10.1,.15-4.05-.09-8.25-.19-12.39-.11-4.55-.24-9.1-.44-13.65-.13-2.8-.25-5.6-.45-8.39-.27-4.23-.56-8.48-1.03-12.67-.37-3.25-.96-6.41-1.48-9.59-.11-.7-.22-1.39-.33-2.09-.21-1.31-.28-2.18-.21-2.82,.05-.63,.19-1.02,.42-1.35,.1-.15,.2-.34,.3-.44,.34-.32,.9,.69,1.53,2.58,1.61,5.65,2.37,11.77,3.03,17.9,.47,4.55,.73,9.15,.98,13.72h-.07Z"/>
  <path class="cls-1" d="M220.82,414.81c1.67,1.6,3.36,3.2,5.08,4.76,.63,.57,1.31,1.07,1.94,1.64,2.21,2.02,4.41,4.05,6.67,6.02,1,.88,2.07,1.68,3.08,2.53,.64,.55,1.35,1.03,1.95,1.64,.56,.65,1.11,1.3,1.69,1.97,.34,.42,.17,.52-.36,.47-.27-.02-.63-.08-1.05-.16-.43-.08-.94-.16-1.42-.34-3.14-1.61-5.68-3.98-8.2-6.42-1.5-1.47-3.27-2.74-4.9-4.13-1.79-1.53-3.55-3.1-5.3-4.67l-3.21-2.94c-1.63-1.48-3.2-3.02-4.84-4.47-1.26-1.13-2.63-2.12-3.93-3.21-.29-.24-.59-.44-.87-.71-.5-.48-.81-.83-.9-1.18-.07-.38,.04-.73,.22-1.11,.08-.17,.14-.35,.22-.48,.14-.22,.38-.3,.78-.33,.4-.04,.88,.04,1.27,.35,2.45,1.72,4.7,3.83,7,5.95,1.7,1.57,3.39,3.2,5.12,4.77l-.05,.06Z"/>
  <path class="cls-1" d="M242.34,344.09c-2.82,2.63-5.65,5.25-8.44,7.91-1.02,.97-1.96,2.02-2.98,2.98l-10.85,10.2c-1.59,1.52-3.12,3.13-4.6,4.73-1.93,2.04-3.64,4.3-5.95,5.94-.82,.42-1.13,0-1.23-1.1-.06-.56,.01-1.23,.19-1.93,.17-.71,.51-1.43,1.07-2.02,3.88-4.25,7.92-8.33,12.31-12.13,2.64-2.26,5.05-4.94,7.6-7.4l8.46-8.06,5.23-4.94c2.63-2.5,5.32-4.96,7.89-7.5,1.99-1.98,3.83-4.03,5.83-5.96,.44-.43,.84-.87,1.3-1.29,1.74-1.5,2.46-1.79,3.36-1.5,.2,.07,.43,.11,.6,.2,.56,.32,.21,1.33-.84,2.63-1.55,1.93-3.24,3.82-4.96,5.73-1.76,1.87-3.64,3.67-5.5,5.49-2.8,2.68-5.61,5.38-8.42,8.07l-.07-.06Z"/>
  <path class="cls-1" d="M199.34,331.2c-2.51-.4-4.8-.96-7.16-1.65-.85-.25-1.72-.46-2.55-.76-2.94-1.09-5.74-2.48-8.4-4.02-1.19-.67-2.39-1.33-3.57-1.97-1.5-.86-3.15-1.47-4.29-2.92-.37-.43-.22-.54,.36-.64,.28-.02,.79-.26,1.2-.2,.44,.01,.93,.08,1.39,.27,3.1,1.63,6.11,3.29,9.13,4.98,1.81,1.02,3.88,1.65,5.89,2.27,2.21,.69,4.48,1.24,6.79,1.63,1.39,.25,2.79,.38,4.21,.39,2.13,.02,4.31-.21,6.22-.97,1.48-.6,2.64-1.66,3.17-2.86,.09-.28,.23-.52,.28-.81,.35-1.01,.55-1.4,1.27-1.66,.16-.06,.31-.15,.46-.19,.48-.15,.94,.43,1.09,1.7,.08,1.9-1.12,3.92-2.67,5.12-1.57,1.22-3.39,1.82-5.13,2.17-2.61,.49-5.17,.47-7.7,.19v-.07Z"/>
  <path class="cls-1" d="M204.43,309.36c-1.89-.1-3.78-.24-5.67-.39-.69-.05-1.38-.01-2.07-.09-2.43-.27-4.85-.66-7.27-1.07-1.07-.17-2.16-.3-3.23-.42-.69-.07-1.38-.23-2.06-.37-.17-.04-.34-.08-.51-.13l-.49-.24c-.32-.17-.64-.35-.95-.54-.38-.25-.22-.59,.26-.99,.24-.2,.56-.43,.91-.64,.18-.11,.37-.21,.56-.29,.1-.05,.19-.07,.29-.12,.09,0,.19,0,.28,0,.67,.04,1.34,.07,2.01,.14,.66,.1,1.33,.2,1.99,.33,1.34,.21,2.68,.47,4.04,.77,1.63,.37,3.37,.28,5.06,.41,1.86,.13,3.74,.26,5.61,.35,1.16,.05,2.31,.11,3.47,.12,1.75,.03,3.52,.08,5.26-.02,1.35-.08,2.67-.36,4-.57,.29-.05,.58-.09,.88-.1,.55-.03,.92,.04,1.18,.23,.26,.17,.42,.42,.56,.78,.06,.17,.14,.33,.18,.48,.13,.52-.3,1.05-1.09,1.43-1.18,.46-2.41,.68-3.66,.81-1.25,.14-2.53,.2-3.8,.24-1.9,.05-3.81,0-5.72-.04v-.08Z"/>
  <path class="cls-1" d="M84.6,305.56c0-.85-5.08-58.45-14.39-61.9-10.27-3.81-16.83,27.12-16.66,50.31,.16,23.18,1.41,37.01,1.41,37.01l29.65-25.41Z"/>
  <path class="cls-1" d="M86.74,345.33c0,.85,5.2,44.98-2.14,50.71-7.34,5.73-18.39-7.04-23.08-28.22l3.7-.65,21.53-21.83Z"/>
  <path class="cls-1" d="M271.84,149.1l-6.83-.46c-2.27-.2-4.55-.36-6.82-.58-1.66-.17-3.32-.24-4.97-.44-5.82-.77-11.62-1.64-17.38-2.72-1.28-.23-2.56-.45-3.85-.66-1.28-.24-2.56-.47-3.83-.7l-2.45-.43c-.82-.15-1.62-.36-2.43-.57-.8-.21-1.61-.42-2.41-.65l-1.2-.35c-.4-.13-.77-.35-1.16-.51-.95-.47-.81-.45,.12-.6,.46-.06,1.15-.3,1.91-.3,.77-.04,1.66-.03,2.6,.11,3.34,.4,6.62,1.06,9.92,1.63,3.31,.56,6.62,1.12,9.96,1.68,1,.17,2.01,.33,3.03,.47,1.02,.11,2.05,.21,3.09,.32,2.07,.2,4.15,.38,6.21,.54,2.27,.22,4.53,.45,6.81,.61,2.27,.19,4.54,.36,6.82,.48,2.8,.19,5.61,.3,8.41,.41,4.25,.12,8.52,.25,12.75,.18,3.28-.03,6.5-.32,9.76-.44,.72,0,1.42-.03,2.14,0,.67,.02,1.23,.05,1.7,.09,.47,.06,.85,.17,1.16,.26,.62,.19,.98,.4,1.26,.65,.13,.12,.3,.23,.37,.33,.25,.32-.85,.69-2.79,1.12-1.45,.19-2.92,.39-4.4,.59-1.48,.1-2.99,.18-4.5,.23-3.03,.11-6.11,.16-9.2,.14-4.59,0-9.2-.18-13.8-.36v-.07Z"/>
  <path class="cls-1" d="M268.11,110.27c-1.64-1.83-3.28-3.68-4.9-5.55-.58-.69-1.26-1.29-1.81-2.01-1.99-2.49-3.88-5.07-5.71-7.67-.82-1.15-1.69-2.28-2.49-3.43-.5-.75-1.02-1.49-1.51-2.25-.43-.8-.74-1.67-1.07-2.52-.19-.54,.06-.6,.62-.4,.55,.21,1.54,.6,2.32,1.29,2.37,2.72,4.39,5.62,6.46,8.62,1.22,1.8,2.85,3.39,4.32,5.06,1.6,1.86,3.21,3.71,4.87,5.54l3.07,3.37c1.58,1.68,3.11,3.42,4.69,5.07,1.22,1.29,2.58,2.41,3.77,3.71,.26,.29,.52,.56,.77,.87,.91,1.13,1.1,1.59,.95,2.14-.03,.12-.04,.26-.08,.35-.12,.3-.8,.12-1.67-.5-2.72-1.74-5.07-4.04-7.51-6.3-1.79-1.69-3.43-3.55-5.15-5.34l.05-.06Z"/>
  <path class="cls-1" d="M328.86,122.64s23.99,1.23,25.97-9.78c1.98-11.01-26.62-16.12-26.62-16.12l.66,25.9Z"/>
  <path class="cls-1" d="M208.92,117.11s-25.83-10.24-22.78-16.53,23.7-8.98,23.7-8.98l-.92,25.51Z"/>
  <path class="cls-1" d="M156.5,276.93c-4.79,.52-9.55,1.75-14.26,3.24-2.35,.77-4.7,1.59-7.05,2.4-2.32,.89-4.66,1.73-6.96,2.68l-5.01,2.14-4.94,2.29c-11.6,5.39-22.75,11.79-33.28,19.13-2.34,1.62-4.63,3.33-6.9,5.05-2.24,1.76-4.5,3.5-6.64,5.33-2.81,2.3-5.5,4.75-8.22,7.16-1.34,1.22-2.72,2.42-4.1,3.6-1.37,1.2-2.71,2.42-4.12,3.58-1.79,1.41-1.95,.81-1.06-1.03,.9-1.84,2.93-4.89,5.99-7.81,5.53-5.08,11.31-9.88,17.33-14.4,6.02-4.52,12.36-8.63,18.91-12.43,7.83-4.53,16.06-9.13,24.52-12.9,2.31-1.06,4.68-1.99,7.02-2.99,2.37-.92,4.74-1.84,7.14-2.71,2.41-.81,4.79-1.69,7.23-2.45,2.44-.76,4.91-1.45,7.42-2.01,6.15-1.37,12.64-2.07,19.02-.7,4.71,1.19,9.13,2.88,13.51,4.72,4.37,1.85,8.63,3.95,12.75,6.24,6.4,3.55,12.52,7.46,17.98,12.36,.6,.54,1.19,1.08,1.78,1.62l.89,.81c.28,.3,.55,.59,.83,.89,1.03,1.12,1.86,2.03,2.55,2.87,.69,.9,1.13,1.69,1.43,2.36,.3,.67,.46,1.23,.53,1.72,.03,.51-.04,.94-.1,1.31-.06,.35-.07,.76-.14,.97-.12,.35-.47-.02-1.27-.79-.45-.36-.81-.91-1.27-1.54-.46-.62-1-1.33-1.64-2.05-4.2-4.59-9.19-8.73-14.59-12.38-5.41-3.67-11.25-6.89-17.31-9.68-4.5-2.05-9.14-3.92-13.84-5.37-.59-.19-1.17-.36-1.75-.51-.59-.17-1.14-.3-1.68-.41-.56-.11-1.15-.19-1.73-.28-.59-.05-1.17-.13-1.76-.16-2.37-.15-4.77-.06-7.18,.22l-.02-.08Z"/>
  <path class="cls-1" d="M98.74,338.64l-2.57,1.75-2.52,1.82c-1.7,1.19-3.31,2.5-4.95,3.77-1.2,.93-2.28,2-3.46,2.95-4.1,3.42-8.14,6.95-11.9,10.77-1.71,1.65-3.29,3.45-4.85,5.22-1.95,2.32-3.82,4.71-6.08,6.8-.72,.64-.88,.36-.74-.55,.13-.92,.55-2.49,1.49-4.01,3.77-5.03,7.92-9.8,12.72-13.96,.71-.63,1.41-1.28,2.11-1.94,.71-.65,1.41-1.31,2.13-1.97,1.4-1.35,2.84-2.67,4.3-3.93,3.21-2.79,6.58-5.4,10-7.94,2.13-1.52,4.27-3.04,6.47-4.46,3.28-2.22,6.74-4.22,10.11-6.24,2.65-1.52,5.16-3.22,7.87-4.6,.6-.3,1.15-.66,1.78-.91,2.32-.97,3.23-.86,3.98-.42,.17,.11,.38,.19,.5,.3,.21,.19,.12,.49-.19,.9-.31,.41-.84,.95-1.59,1.46-.54,.41-1.12,.74-1.7,1.08-.57,.36-1.14,.73-1.71,1.1-1.14,.74-2.37,1.33-3.53,2.06-1.19,.69-2.38,1.38-3.59,2.07-1.19,.71-2.39,1.42-3.59,2.14-3.51,2.2-7.06,4.4-10.44,6.85l-.06-.07Z"/>
  <path class="cls-1" d="M199.94,328.6c-3.84-.4-7.47-1.37-10.96-2.58-3.49-1.22-6.87-2.62-10.17-4.16-2.41-1.12-4.83-2.24-7.14-3.45l-.99-.51c-.07-.03-.15,0-.22,.02l-.17,.06-.38,.15-3.2,1.32c-2.17,.88-4.37,1.7-6.61,2.43-4.47,1.46-9.08,2.54-13.76,3.1-4.15,.49-8.39,.59-12.54,.21-2.66-.26-5.33-.73-7.91-1.48-1.3-.36-2.57-.82-3.8-1.35-1.2-.62-2.43-1.15-3.52-1.96-1.26-1.18-1.01-1.11,.53-1.12,.4-.04,.82,.04,1.32,.09,.49,.06,1.05,.1,1.63,.19,.58,.09,1.21,.19,1.86,.3,.65,.13,1.3,.35,2,.52,4.88,1.44,10.01,1.92,15.13,1.72,5.12-.24,10.27-1.07,15.36-2.41,3.05-.8,6.08-1.91,9.08-3.2l2.26-.99,1.17-.51,.34-.14c.17-.07,.33-.13,.49-.18,.33-.08,.66-.16,1-.18,.34-.01,.66,.14,.98,.23,.16,.07,.32,.14,.48,.21l.33,.16,1.12,.56,2.2,1.12c6.38,3.24,12.97,6.2,19.88,7.66,2.12,.44,4.25,.73,6.37,.74,2.11,0,4.2-.28,6.06-1.05l.82-.39c.2-.1,.38-.23,.57-.35,.19-.11,.38-.28,.42-.5,.03-.23-.08-.44-.22-.62-.14-.18-.3-.34-.48-.48-.09-.08-.18-.14-.27-.21l-.44-.31c-.66-.45-1.36-.87-2.08-1.27-2.89-1.61-5.93-3.06-8.94-4.54-4.69-2.28-9.41-4.34-13.94-7.05-1-.6-1.98-1.19-2.95-1.88-.89-.65-1.61-1.23-2.18-1.77-.56-.54-.94-1.07-1.24-1.51-.59-.89-.71-1.59-.65-2.24,.03-.3,.02-.63,.09-.84,.26-.66,1.72,.29,4.15,1.88,3.51,2.54,7.62,4.67,11.83,6.77,4.22,2.11,8.63,4.06,13.03,6.36,1.64,.88,3.26,1.76,4.94,2.91l.72,.52c.34,.29,.72,.54,1.02,.86,.64,.6,1.19,1.26,1.47,1.98,.29,.7,.4,1.49,.22,2.26-.09,.37-.23,.72-.42,1.03-.06,.17-.26,.29-.41,.42l-.47,.4c-.64,.52-1.2,1.12-2.08,1.48l-.87,.42c-.25,.12-.51,.19-.76,.28-.51,.18-1.02,.36-1.53,.47-.51,.12-1.03,.26-1.54,.32-2.05,.33-4.06,.34-6.01,.17v-.09Z"/>
  <path class="cls-1" d="M224.69,307.35c4.32,.18,8.64,.35,12.96,.47,1.58,.04,3.15-.03,4.72,.02,5.55,.16,11.1,.28,16.65,.3,2.46,.02,4.93-.13,7.37-.27,1.56-.1,3.13-.2,4.7-.26,.79-.01,1.56-.09,2.35-.08,.79,.03,1.58,.06,2.37,.09,.99,.06,.89,.3,.11,.78-.39,.24-.95,.56-1.63,.92-.34,.17-.71,.38-1.12,.52-.4,.13-.84,.26-1.29,.33-1.6,.25-3.21,.52-4.82,.72-1.61,.12-3.23,.22-4.85,.31-3.23,.12-6.47,.22-9.73,.06-3.89-.16-7.93,.06-11.9,.04-4.37-.02-8.73-.11-13.09-.2-2.68-.06-5.37-.13-8.05-.19-4.06-.08-8.14-.22-12.17-.18-3.13,.03-6.2,.29-9.28,.49-.68,.05-1.34,.13-2.02,.15-1.27,.04-2.09,.05-2.68-.12-.59-.21-.94-.51-1.24-.95-.13-.2-.31-.4-.39-.6-.14-.33,.04-.65,.5-.95,.45-.3,1.18-.64,2.12-.75,5.58-.82,11.43-.89,17.3-.89,4.36,0,8.73,.12,13.09,.17v.09Z"/>
  <path class="cls-1" d="M162.12,386.2c-.23-5.09-.42-10.19-.7-15.28-.1-1.86-.3-3.71-.39-5.56-.37-6.54-.71-13.1-1.26-19.63-.2-2.9-.56-5.8-.9-8.66-.25-1.83-.54-3.67-.76-5.5-.23-1.83-.25-3.69-.41-5.53-.06-1.16,.14-1.07,.72-.2,.52,.88,1.82,2.52,2.32,4.64,.12,.47,.26,.93,.37,1.4l.22,1.42,.42,2.84c.28,1.89,.48,3.78,.7,5.68,.23,1.9,.37,3.8,.49,5.7,.13,1.91,.22,3.82,.29,5.73,.18,4.58,.71,9.32,1.01,13.99,.33,5.14,.6,10.28,.84,15.43,.13,3.17,.26,6.34,.39,9.5,.17,4.8,.35,9.62,.52,14.38,.16,3.7,.45,7.33,.59,11,.03,.81,.08,1.6,.09,2.42,.06,1.51-.09,2.53-.3,3.22-.19,.7-.45,1.09-.8,1.4-.16,.14-.31,.33-.45,.41-.44,.26-.94-.99-1.2-3.16-.44-6.47-.81-13.33-1.12-20.23-.25-5.12-.47-10.27-.76-15.4h.08Z"/>
  <path class="cls-1" d="M270.62,385.04c.25-5.98,.54-11.96,.86-17.94,.11-2.18,.15-4.36,.32-6.54,.58-7.67,1.23-15.34,1.96-23,.35-3.4,.53-6.82,.88-10.19,.21-2.17,.41-4.34,.66-6.5,.32-2.16,.74-4.31,1.21-6.45,.31-1.33,.29-1.15,.44,.01,.15,1.16,.64,3.32,.86,5.84,.14,8.89-.23,17.72-1.24,26.61-.57,5.32-.62,10.88-.89,16.34-.32,6-.63,12-.95,18.01-.17,3.7-.34,7.39-.45,11.09-.17,5.6-.34,11.23-.31,16.79,.04,4.32,.32,8.56,.54,12.82,.05,.94,.11,1.86,.16,2.8,.02,1.76-.02,2.91-.2,3.73-.21,.82-.5,1.3-.91,1.69-.19,.18-.37,.41-.55,.52-.3,.18-.59-.09-.89-.72-.29-.63-.62-1.63-.78-2.92-.3-1.91-.46-3.85-.6-5.81-.14-1.96-.27-3.95-.33-5.94-.16-3.99-.21-8.05-.21-12.11,0-6.03,.15-12.08,.31-18.12h.1Z"/>
  <path class="cls-1" d="M224.75,359.14c3.63-4.02,7.3-8.01,10.99-11.98,1.34-1.45,2.63-2.95,4-4.38,4.84-5.02,9.78-9.94,14.75-14.82,2.19-2.18,4.39-4.38,6.51-6.6l2.08-2.11c.7-.69,1.42-1.37,2.14-2.05,.73-.66,1.45-1.35,2.26-1.92l2.49-1.67c1.05-.67,1.1-.38,.69,.7-.2,.54-.5,1.3-.88,2.19-.2,.44-.38,.94-.66,1.39-.3,.43-.64,.86-1.02,1.27l-2.01,2.22c-.67,.74-1.41,1.41-2.11,2.12l-4.26,4.22c-2.84,2.82-5.72,5.62-8.64,8.41-3.51,3.33-6.76,7.16-10.11,10.8-3.68,4-7.38,7.98-11.02,12.02-2.24,2.49-4.48,4.98-6.68,7.5-3.34,3.81-6.7,7.64-9.88,11.54-2.47,3.04-4.71,6.16-7.03,9.25-.51,.68-.98,1.38-1.57,2.01-1.07,1.18-1.8,1.94-2.44,2.37-.68,.4-1.17,.54-1.66,.59-.22,.02-.47,.08-.63,.07-.28-.03-.28-.35-.13-.98,.16-.62,.43-1.57,1.06-2.56,.45-.76,.89-1.52,1.34-2.28,.46-.76,1-1.45,1.52-2.18,1.04-1.44,2.12-2.87,3.23-4.3,2.21-2.86,4.53-5.69,6.88-8.51,3.5-4.18,7.11-8.3,10.71-12.41l.08,.06Z"/>
  <path class="cls-1" d="M224.2,420.97c-1.92-2.03-3.74-4.16-5.62-6.22-.69-.75-1.44-1.43-2.12-2.2l-7.12-8.09c-1.07-1.18-2.14-2.37-3.23-3.5-.68-.75-1.45-1.42-2.05-2.25-.63-.81-1.21-1.65-1.79-2.5-.35-.54-.15-.62,.46-.47,.6,.17,1.7,.46,2.73,1.09,3.44,2.41,6.34,5.33,8.99,8.58,1.59,1.93,3.56,3.63,5.35,5.44l5.86,6.03c1.19,1.25,2.38,2.5,3.59,3.73,1.83,1.86,3.64,3.76,5.55,5.51,1.49,1.36,3.11,2.52,4.68,3.76,.35,.27,.71,.51,1.03,.82,.3,.28,.53,.53,.71,.76,.17,.24,.24,.49,.3,.71,.11,.44,.05,.81-.11,1.25-.08,.2-.13,.41-.22,.57-.29,.54-1.19,.52-2.42,.07-1.63-.87-3.05-2.04-4.49-3.23-1.43-1.2-2.81-2.49-4.17-3.8-2.03-1.95-3.98-3.98-5.96-5.98l.07-.07Z"/>
  <path class="cls-1" d="M202.9,369.74c-.76-1.4-1.58-2.8-2.44-4.17-.31-.5-.73-.92-1.05-1.43-1.1-1.79-2.23-3.57-3.37-5.35-.49-.8-1.06-1.55-1.63-2.28-.72-.96-1.38-1.97-1.8-3.15-.13-.37,.23-.57,.81-.61,.57-.03,1.44,.02,2.01,.43,.5,.37,1.02,.73,1.48,1.13,.43,.43,.84,.87,1.24,1.32,.39,.46,.81,.91,1.14,1.42,.33,.52,.64,1.05,.93,1.6,.7,1.32,1.81,2.39,2.71,3.61,.98,1.34,1.91,2.73,2.83,4.13,.55,.87,1.11,1.74,1.64,2.63,.83,1.33,1.54,2.74,2.36,4.08,.62,1.05,1.49,1.96,2.04,3.09,.13,.24,.3,.46,.37,.73,.07,.25,.11,.47,.12,.66,0,.19-.08,.37-.15,.52-.15,.3-.39,.52-.75,.75-.16,.1-.31,.22-.47,.29-.5,.25-1.19,.06-1.9-.37-.8-.73-1.55-1.46-2.1-2.3-.55-.84-1.1-1.72-1.62-2.61-.82-1.34-1.64-2.7-2.47-4.04l.09-.06Z"/>
  <path class="cls-1" d="M204.55,411.42c-.95,1.1-1.89,2.24-2.79,3.4-.33,.42-.56,.91-.89,1.34-1.16,1.5-2.44,2.95-3.62,4.46-.53,.66-.94,1.42-1.42,2.11-.3,.45-.58,.92-.89,1.36-.16,.22-.33,.43-.52,.64-.17,.21-.46,.35-.7,.52-.33,.19-.62-.05-.91-.58-.15-.26-.31-.61-.45-.98-.11-.36-.12-.7-.02-.99,.2-.52,.4-1.03,.62-1.54,.11-.25,.21-.51,.34-.76l.43-.7c.58-.93,1.23-1.83,1.98-2.67,.88-1.02,1.5-2.27,2.27-3.4,.86-1.23,1.77-2.44,2.69-3.65l1.72-2.21c.85-1.13,1.79-2.2,2.66-3.31,.69-.85,1.14-1.89,1.86-2.73,.16-.18,.29-.39,.48-.55,.69-.62,1.13-.58,1.81-.15,.15,.1,.31,.19,.45,.29,.23,.18,.36,.42,.42,.71,.07,.29,.08,.65-.04,.96-.51,2-1.63,3.46-2.69,5.09-.86,1.15-1.82,2.24-2.7,3.41l-.08-.05Z"/>
  <path class="cls-1" d="M236.5,435.26c-10.29,.39-20.57,.19-30.83-.31-3.74-.19-7.49-.35-11.22-.7-6.58-.62-13.15-1.5-19.66-2.75-6.5-1.26-12.98-2.84-19.23-5.31-2.76-1.12-5.5-2.37-8.05-4.07-2.49-1.76-5.06-3.68-6.44-7.04-.42-1.19-.38-2.56-.03-3.69,.34-1.15,.92-2.13,1.56-2.98,.64-.86,1.37-1.6,2.13-2.28,.75-.68,1.55-1.3,2.39-1.81,3.35-2.06,6.97-3.67,10.98-3.82,1.29,.16,1.81,.41,1.78,.51-.03,.13-.63,.21-1.49,.83-.85,.62-2.01,1.38-3.29,2.44-1.3,1-2.83,2.05-4.42,3.17-.71,.49-1.38,1.02-2.01,1.54-.66,.5-1.27,1.02-1.79,1.56-.53,.54-.97,1.1-1.24,1.6-.28,.51-.37,.92-.37,1.22,0,.08,0,.15,.02,.23,0,.08,.04,.15,.06,.24-.01,.06,.09,.25,.15,.4l.2,.47,.55,.93,.7,.92c.27,.29,.54,.58,.81,.89l.96,.79c.68,.5,1.38,1,2.13,1.45,2.99,1.82,6.39,3.24,9.88,4.43,3.5,1.2,7.11,2.2,10.78,3.08,8.79,2.09,18.23,2.99,27.49,3.68,10.19,.76,20.44,.96,30.67,.67,6.3-.17,12.59-.53,18.85-1.15,9.46-.97,19.02-2.28,27.93-5.14,3.42-1.14,6.8-2.53,9.46-4.6,.34-.25,.65-.51,.94-.79,.31-.26,.58-.55,.83-.84,.28-.28,.46-.59,.67-.88,.13-.15,.15-.28,.21-.41,.05-.13,.14-.26,.16-.37,.11-.47,.01-.78-.15-1.16-.15-.2-.23-.41-.47-.63-.17-.22-.41-.46-.66-.7-.91-.84-2.15-1.54-3.44-2.23-5.01-2.38-6.73-3.38-7.54-5-.19-.37-.48-.76-.56-1.09-.14-.55,.43-.84,1.62-.9,1.18-.05,2.99,.12,5.24,.77,1.65,.53,3.3,1.18,4.95,2.05,1.64,.9,3.36,1.89,4.9,3.87,.74,.95,1.36,2.42,1.47,4.01,0,.81-.05,1.64-.32,2.35-.21,.78-.57,1.34-.92,1.93-1.41,2.07-3.05,3.27-4.7,4.32-3.35,1.98-6.71,3.32-10.14,4.42-3.42,1.1-6.88,1.91-10.35,2.61-10.31,2.02-20.73,2.9-31.11,3.38l-.02-.1Z"/>
  <path class="cls-1" d="M55.05,349.36c-2.31-14.04-3.41-28.22-3.51-42.4-.02-5.18,0-10.36,.29-15.52,.56-9.11,1.59-18.23,3.75-27.18,1.08-4.47,2.5-8.89,4.54-13.13,1.02-2.11,2.24-4.18,3.83-6.05,.39-.47,.85-.9,1.28-1.34,.49-.4,.94-.84,1.48-1.19,.54-.35,1.07-.71,1.67-.96l.44-.21c.14-.07,.29-.14,.51-.19,.4-.12,.8-.23,1.22-.22,1.5-.06,2.74,.58,3.7,1.25,.98,.69,1.72,1.51,2.44,2.34,1.38,1.68,2.45,3.49,3.42,5.33,1.91,3.69,3.33,7.54,4.5,11.42,1.5,4.99,2.59,10.1,3.26,15.27,.32,2.58,.56,5.18,.6,7.79,0,1.3,0,2.6-.06,3.9,0,.65-.1,1.3-.17,1.95l-.11,.97-.05,.48c-.02,.08,.04,.16-.06,.24l-.05,.24c-.37,1.6-.6,2.28-.74,2.23-.15-.05-.27-.85-.64-2.21-.21-.68-.4-1.49-.65-2.42-.3-.93-.47-1.97-.71-3.1-.25-1.13-.49-2.35-.71-3.65-.18-1.3-.38-2.67-.53-4.1-.59-5.06-1.52-10.09-2.88-14.98-1.36-4.87-3.09-9.7-5.52-13.9-.61-1.04-1.28-2.02-1.98-2.89-.7-.86-1.5-1.58-2.14-1.93-.16-.08-.29-.12-.42-.18-.09,.01-.21-.08-.26-.04-.03,0-.07-.02-.09-.01-.03,.02-.05,.03-.09,.03,0-.03-.15,.05-.25,.1l-.33,.16c-.88,.44-1.75,1.04-2.57,1.8-1.66,1.49-3.07,3.53-4.25,5.71-1.18,2.19-2.08,4.59-2.91,7.01-1.93,5.84-3.09,12.13-3.87,18.48-.79,6.36-1.16,12.81-1.37,19.22-.4,14.09,.28,28.24,2.06,42.25,1.11,8.61,2.64,17.19,4.87,25.56,1.71,6.33,3.77,12.6,6.68,18.42,1.47,2.89,3.12,5.71,5.19,8.12,1.01,1.23,2.16,2.31,3.39,3.26,.31,.22,.64,.47,.93,.66,.24,.14,.56,.28,.9,.39,.68,.21,1.42,.33,2.13,.34,.55,0,1.06-.05,1.39-.24,.46-.24,.9-.55,1.31-.92,.83-.74,1.52-1.71,2.11-2.74,1.19-2.07,1.99-4.42,2.67-6.77,1.29-4.76,1.85-9.72,2.19-14.68,.14-2.19,.18-4.34,.2-6.54,.05-4.1-.09-6.78-.03-8.68,.11-1.9,.3-3.01,.61-3.95,.13-.42,.22-.98,.35-1.23,.2-.43,.54,.17,1.05,1.65,.51,1.48,1.04,3.87,1.17,6.96,.25,4.58,.18,9.23-.22,13.91-.39,4.69-1.19,9.39-2.43,14.14-.66,2.37-1.46,4.74-2.77,7.07-.67,1.15-1.43,2.32-2.55,3.35-.57,.51-1.19,.99-1.94,1.37-.27,.18-.96,.45-1.41,.54-.46,.09-.91,.14-1.31,.15-.81,.03-1.55-.05-2.29-.19-.74-.15-1.46-.33-2.26-.7-.2-.09-.41-.2-.64-.34-.23-.14-.3-.21-.46-.31l-.82-.59c-.55-.39-1.02-.85-1.54-1.28-1.95-1.79-3.55-3.82-4.94-5.92-2.08-3.13-3.7-6.45-5.13-9.81-1.42-3.37-2.61-6.8-3.67-10.27-2.09-6.93-3.63-13.98-4.86-21.05l.08-.03Z"/>
  <path class="cls-1" d="M243.62,85.32c12.42-.32,24.83,.05,37.19,1,4.51,.35,9.02,.66,13.51,1.2,7.92,.95,15.8,2.19,23.61,3.84,7.81,1.65,15.57,3.7,23.03,6.71,3.31,1.34,6.58,2.85,9.65,4.78,1.54,.96,3.02,2.04,4.37,3.31,.34,.32,.68,.62,.99,.98l.47,.52c.16,.17,.31,.34,.48,.58,.66,.89,1.04,2.06,.98,3.17-.04,1.44-.62,2.69-1.32,3.74-.71,1.06-1.57,1.94-2.49,2.72-1.85,1.54-3.93,2.7-6.09,3.59-4.31,1.8-8.93,2.57-13.48,2.65-2.86-.18-2.44-.47-.15-1.27,1.14-.44,2.76-.9,4.65-1.53,1.89-.64,4.06-1.36,6.33-2.2,2.01-.76,3.94-1.71,5.6-2.91,1.64-1.17,3.08-2.71,3.51-4.12,.2-.7,.16-1.21-.1-1.66-.05-.12-.15-.22-.25-.36l-.51-.55c-.32-.38-.71-.72-1.09-1.06-1.53-1.37-3.34-2.56-5.23-3.62-1.9-1.07-3.9-2.01-5.96-2.85-2.05-.86-4.17-1.62-6.3-2.33-4.28-1.39-8.65-2.66-13.08-3.76-10.61-2.64-21.99-4.02-33.16-5.08-12.29-1.17-24.66-1.72-37.02-1.63-7.61,.07-15.22,.37-22.78,1.05-5.73,.5-11.45,1.2-17.1,2.23-5.64,1.03-11.22,2.4-16.43,4.51-2.02,.82-3.97,1.78-5.74,2.93-1.76,1.14-3.39,2.52-4.49,4.07-.32,.47-.3,1.07,0,1.85,.33,.76,.9,1.54,1.57,2.26,1.36,1.43,3.09,2.64,4.9,3.71,1.6,.93,3.28,1.67,5.03,2.39,3.25,1.31,5.49,1.97,7.02,2.57,.77,.29,1.37,.57,1.86,.84,.48,.31,.86,.63,1.19,.93,.3,.28,.72,.57,.89,.8,.61,.62-2.56,1.22-7.87-.28-3.93-1.09-7.82-2.63-11.52-4.91-1.84-1.16-3.64-2.5-5.21-4.41-.76-.97-1.52-2.09-1.88-3.71-.16-.8-.22-1.74,.05-2.7,.14-.47,.32-.94,.58-1.34l.19-.31c.06-.1,.1-.13,.15-.2l.29-.36c1.52-1.96,3.39-3.41,5.3-4.63,1.91-1.22,3.91-2.19,5.92-3.03,4.04-1.71,8.18-2.87,12.35-3.86,6.19-1.44,12.44-2.38,18.7-3.07,6.26-.69,12.54-1.06,18.81-1.28l.02,.1Z"/>
  <path class="cls-1" d="M211.12,107.45l-.48,7.44c-.06,.9-.02,1.81-.09,2.71-.24,3.19-.5,6.37-.67,9.56-.09,1.41-.05,2.84-.07,4.24-.04,.9-.01,1.8-.11,2.71-.11,.9-.28,1.81-.45,2.71-.12,.56-.29,.49-.59,.01-.28-.48-.83-1.35-1.12-2.39-.38-1.84-.54-3.68-.49-5.52,.01-1.84,.09-3.69,.25-5.55,.2-2.22,.02-4.53,.03-6.8,.02-2.5,.08-4.99,.17-7.49l.14-4.61c.04-2.33,.15-4.66,.08-6.97-.06-1.8-.31-3.56-.46-5.33-.03-.39-.1-.77-.11-1.17-.02-1.46,.51-1.93,1.3-2.24,.19-.07,.36-.17,.53-.21,.29-.07,.55,.04,.83,.31,.27,.27,.59,.68,.77,1.22,.85,3.17,.92,6.52,.86,9.88-.03,2.49-.15,5-.23,7.5h-.09Z"/>
  <path class="cls-1" d="M329.78,111.97c.09,2.17,.21,4.38,.46,6.6,.08,.81,.29,1.6,.37,2.42,.28,2.88,.55,5.79,.77,8.72,.09,1.3,.2,2.61,.34,3.89l.11,1.25c.02,.42,.01,.84,0,1.25-.06,.84-.18,1.68-.36,2.51-.12,.52-.56,.44-1.09,.02-.52-.43-1.27-1.19-1.52-2.08-.1-.4-.24-.8-.35-1.19-.12-.4-.14-.8-.21-1.2l-.36-2.41c-.28-1.6-.27-3.26-.35-4.94-.03-2.01-.6-4.04-.89-6.09-.33-2.25-.59-4.54-.78-6.84l-.14-2.13-.07-2.14c-.05-1.08,.02-2.17,.02-3.25,.06-1.09,.11-2.17,.17-3.25,.07-.84,.08-1.67,.08-2.52,.05-.84,.1-1.68,.25-2.51,.05-.37,.1-.73,.22-1.09,.27-.65,.51-1.05,.8-1.3,.33-.23,.64-.33,1.01-.36,.17-.02,.33-.05,.47-.05,.24,.01,.41,.18,.6,.48,.18,.3,.41,.75,.45,1.24,.14,.75,.09,1.44,.16,2.16,.08,.72,0,1.41-.05,2.1-.01,.7-.05,1.4-.1,2.11-.05,.7-.03,1.42-.07,2.13-.06,1.05,.01,2.13-.02,3.2,.05,1.08,.07,2.16,.17,3.25h-.1Z"/>
  <path class="cls-1" d="M259.32,146.38c2.99,.14,5.99,.13,8.98,.21,3,.04,6-.02,9-.03,2.19,0,4.38-.19,6.57-.23l5.79-.14,5.79-.23c3.86-.15,7.73-.28,11.59-.54,3.43-.21,6.87-.48,10.26-.81,2.18-.23,4.36-.47,6.54-.63,1.09-.07,2.18-.18,3.28-.19l3.3,.02c1.37,.04,1.22,.32,.11,.85-.55,.27-1.35,.61-2.31,.99-.48,.18-1,.4-1.56,.55-.56,.14-1.16,.26-1.79,.34-4.44,.68-8.9,1.02-13.38,1.34-4.48,.31-8.97,.61-13.49,.69-2.7,.07-5.46,.22-8.22,.37-2.77,.12-5.56,.24-8.32,.37-6.08,.17-12.17,.24-18.26,.12-1.87,0-3.75-.07-5.62-.16-1.87-.09-3.75-.11-5.62-.25-5.67-.32-11.36-.91-16.96-1.71-4.34-.68-8.62-1.39-12.86-2.53-.93-.26-1.85-.48-2.77-.77-1.69-.61-2.79-1.04-3.5-1.51-.7-.49-1.03-.95-1.27-1.4-.11-.2-.28-.4-.34-.54-.09-.24,.22-.3,.93-.36,.71-.09,1.76,.01,3,.35,7.37,2.03,15.07,3.69,23.1,4.54l4.47,.44c1.49,.15,3,.21,4.5,.33,3,.25,6.02,.31,9.03,.42v.08Z"/>
  <path class="cls-1" d="M268.77,104.11c1.82,2.42,3.7,4.8,5.65,7.12,.7,.86,1.49,1.64,2.2,2.49,2.5,3.01,5.04,6,7.7,8.9,1.17,1.29,2.45,2.49,3.65,3.74,.79,.79,1.59,1.55,2.37,2.35,.74,.84,1.4,1.76,2.06,2.67,.4,.59,.13,.73-.59,.63-.7-.12-1.96-.38-3.09-1.06-.91-.7-1.75-1.47-2.62-2.21-.86-.75-1.72-1.51-2.49-2.35-1.58-1.65-3.11-3.36-4.57-5.16-1.74-2.14-3.82-4.12-5.7-6.24-2.05-2.33-4-4.75-5.92-7.19-1.18-1.51-2.33-3.03-3.47-4.57-1.74-2.32-3.35-4.74-5.01-7.09-1.26-1.85-2.59-3.6-3.79-5.48-.27-.41-.56-.79-.79-1.23-.82-1.64-.79-2.32-.43-2.94,.09-.15,.16-.31,.25-.42,.32-.36,1.06,.08,1.99,1.05,1.28,1.49,2.44,3.1,3.66,4.7,.61,.8,1.24,1.59,1.79,2.43,.59,.83,1.18,1.65,1.77,2.48,1.77,2.46,3.55,4.93,5.45,7.31l-.06,.06Z"/>
  <path class="cls-1" d="M255.45,117.7c-1.17,.86-2.32,1.76-3.45,2.7-.41,.35-.73,.77-1.15,1.11l-2.21,1.81c-.74,.6-1.52,1.17-2.26,1.79-.66,.54-1.25,1.14-1.84,1.74-.77,.76-1.61,1.45-2.61,1.98-.31,.16-.51-.11-.6-.59-.08-.48-.12-1.25,.17-1.81,.27-.49,.52-1,.82-1.46,.34-.42,.67-.85,1.03-1.26,.71-.82,1.47-1.6,2.33-2.31,1.07-.8,1.86-1.94,2.81-2.91,1.05-1.06,2.15-2.09,3.25-3.11,.69-.63,1.38-1.23,2.1-1.83,1.06-.93,2.2-1.78,3.24-2.73,.8-.75,1.5-1.62,2.35-2.35,.19-.16,.33-.37,.57-.46,.86-.38,1.27-.26,1.88,.39,.14,.15,.29,.29,.4,.44,.39,.51,.39,1.2,.1,1.84-.39,1.01-1.01,1.66-1.59,2.41-.62,.68-1.33,1.28-2.04,1.9-1.05,.93-2.16,1.83-3.24,2.8l-.08-.07Z"/>
  <path class="cls-1" d="M335.94,254.86c.03,.24,.18,.89,.52,1.42,.12,.28,.37,.55,.54,.84,.25,.27,.44,.56,.72,.82,1.05,1.08,2.37,2.08,3.81,2.96,2.88,1.78,6.15,3.26,9.42,4.7,2.4,1.05,4.91,1.97,7.35,3.18,2.15,1.05,4.27,2.27,6.27,3.71,1,.71,1.96,1.49,2.88,2.32,.91,.82,1.76,1.65,2.59,2.5,3.31,3.4,6.25,6.95,9.7,9.85,3.01,2.59,6.62,4.38,10.41,5.46,2.43,.7,4.96,1.05,7.49,1.3,1.27,.13,2.54,.22,3.82,.28,1.27,0,2.57,.33,3.88,.46,1.64,.24,1.46,.33,.13,1.04-.67,.36-1.63,.93-2.85,1.46-.61,.26-1.28,.38-2.01,.5-.72,.12-1.49,.18-2.29,.16-.71,0-1.42-.04-2.13-.09-.71-.06-1.41-.18-2.12-.27-1.41-.23-2.81-.51-4.2-.89-2.77-.75-5.48-1.84-8.01-3.29-5.15-2.99-8.87-7.29-12.45-11.26-1.07-1.19-2.18-2.35-3.34-3.44-1.16-1.1-2.34-2.05-3.66-2.93-2.61-1.75-5.53-3.12-8.51-4.46-3.27-1.46-6.7-2.85-10.02-4.51-1.66-.83-3.33-1.71-4.94-2.75-1.6-1.05-3.18-2.21-4.53-3.76-.83-.94-1.58-2.04-2.03-3.34-.14-.3-.19-.69-.28-1.03-.09-.32-.13-.77-.14-1.19,.02-.85,.3-1.69,.86-2.32,.53-.64,1.35-1.09,2.1-1.29,.71-.21,1.33-.29,1.96-.34,1.25-.08,2.43,0,3.59,.14,3.49,.4,6.9,1.21,10.15,2.19,3.26,.92,6.52,1.78,9.8,2.48,5.09,1.08,10.17,1.62,15.24,1.71,1.12,.03,2.21-.03,3.33-.04,2.08-.06,3.43-.09,4.41,.09,.97,.13,1.55,.37,2.06,.78,.23,.19,.53,.37,.67,.56,.25,.32-.05,.67-.8,1.03-.76,.37-1.98,.74-3.58,.96-4.76,.5-9.7,.29-14.58-.41-2.45-.34-4.89-.8-7.31-1.33-2.43-.51-4.84-1.1-7.23-1.73-1.76-.48-3.51-.96-5.27-1.44-1.68-.45-3.4-.82-5.1-1.1-.85-.15-1.7-.22-2.53-.23-.83-.02-1.63,.01-2.35,.11-.35,.06-.69,.12-.94,.21-.32,.1-.25,.1-.3,.1-.04,.02-.07,.06-.07,.11h-.1Z"/>
  <path class="cls-1" d="M374.77,215.87c3.58,.97,7.15,1.97,10.72,3.23,.89,.32,1.79,.66,2.69,1.03,.46,.21,.9,.38,1.38,.61,.48,.23,.94,.46,1.35,.72,1.72,.96,3.37,2.05,4.9,3.28,3.08,2.44,5.71,5.35,7.94,8.46,2.24,3.11,4.09,6.43,5.76,9.79,2.41,4.91,4.5,9.9,6.49,14.85,7.01,17.5,14.14,34.94,22.13,52,3.54,7.57,7.38,15.04,11.37,22.29,1.29,2.33,2.58,4.66,3.95,6.94l2.02,3.44,2.06,3.42,2.04,3.43,2.1,3.39c.34,.57,.71,1.12,1.03,1.71,.32,.59,.63,1.18,.97,1.75l2.01,3.46c1.64,2.9,1.24,2.65-.81,.64-1.02-1.01-2.52-2.41-4.25-4.18-.86-.89-1.65-1.95-2.52-3.06-.87-1.12-1.74-2.33-2.56-3.64-1.5-2.3-2.98-4.62-4.32-7.01-1.39-2.37-2.77-4.74-4.07-7.15l-1.98-3.6-1.92-3.64c-1.29-2.42-2.53-4.86-3.74-7.32-4.9-9.81-9.43-19.81-13.7-29.96-5.11-12.13-10.54-24.72-15.65-37.13-2.83-6.76-5.88-13.42-10.26-19.06-2.17-2.82-4.7-5.34-7.56-7.37-1.42-1.01-2.97-1.93-4.49-2.68-1.55-.71-3.28-1.31-5-1.87-8.55-2.73-17.42-4.84-26.27-6.71-3.36-.69-6.73-1.35-10.11-1.92-3.36-.56-6.81-1.08-10.05-1.24-.49,0-1-.02-1.42,.24-.2,.13-.4,.29-.5,.51-.11,.22-.09,.48-.02,.71,.15,.46,.48,.85,.83,1.18,.51,.49,1.17,1.03,1.83,1.5,2.69,1.9,5.75,3.41,8.83,4.78,4.81,2.11,9.78,3.79,14.77,5.31,2.51,.79,4.97,1.33,7.63,2.34,2.58,1.01,5.01,2.43,7.18,4.15,1.92,1.51,3.65,3.17,5.2,5.06,1.42,1.76,2.48,3.31,3.26,4.66,.41,.66,.7,1.31,.97,1.89,.27,.58,.5,1.1,.67,1.59,.37,.97,.59,1.75,.71,2.44,.1,.69,.09,1.27,.07,1.79-.02,.47,.04,1.05,0,1.33-.07,.93-2.16-2.08-5.55-7.11-2.49-3.75-5.52-7.18-9.2-9.65-1.83-1.24-3.8-2.24-5.88-2.95-.99-.34-2.21-.69-3.39-1.03-1.18-.36-2.36-.71-3.54-1.09-4.72-1.5-9.43-3.19-14.08-5.21-2.33-1.01-4.65-2.09-6.93-3.39-1.14-.65-2.27-1.35-3.39-2.18-.56-.41-1.12-.87-1.67-1.38-.78-.81-1.73-1.8-2.11-2.84-.3-.77-.54-1.56-.4-2.34,.05-.79,.38-1.55,.85-2.2,.9-1.34,2.59-2.02,4.34-2.18l.67-.05,.33-.03h.2s.78,0,.78,0c.52-.01,1,.05,1.49,.08,.97,.09,1.93,.19,2.87,.31,3.78,.48,7.46,1.12,11.14,1.82,7.35,1.41,14.62,3.05,21.87,4.93v.11Z"/>
  <path class="cls-1" d="M343.11,229.65c2.74,1.03,5.63,1.99,8.51,3.09,1.05,.4,2.14,.72,3.17,1.19,3.65,1.66,7.18,3.78,10.15,6.53,1.32,1.21,2.64,2.43,3.81,3.77,.4,.41,.75,.86,1.09,1.32,.32,.47,.72,.89,.96,1.41,.26,.51,.52,1.02,.75,1.54,.21,.54,.39,1.07,.58,1.61,.21,.68-.15,.75-.86,.5-.7-.27-1.86-.78-2.81-1.55-.83-.71-1.48-1.5-2.23-2.22-.68-.78-1.4-1.5-2.14-2.23-1.48-1.44-3.09-2.74-4.79-4.03-2.02-1.59-4.57-2.54-7.04-3.54-2.73-1.1-5.57-2.05-8.46-3.03-1.78-.61-3.57-1.25-5.35-2.01-2.66-1.16-5.43-2.75-7.29-5.36-.73-1.01-1.28-2.07-1.73-3.19-.22-.57-.39-1.17-.48-1.82-.11-.64-.11-1.36,.03-2.12,.16-.67,.43-1.43,1.05-2.01,.26-.29,.57-.43,.83-.6,.27-.16,.53-.18,.75-.24,.47-.12,.79-.04,1.07,0,.55,.11,.8,.43,1.01,.8,.09,.18,.2,.35,.24,.52,.07,.28-.09,.54-.37,.8-.27,.23-.68,.51-.92,.8-.31,.47-.09,.46-.02,.97,.04,.22,.15,.54,.26,.85,.15,.33,.28,.66,.41,1.03,.6,1.51,1.36,2.6,2.6,3.6,1.83,1.48,4.48,2.6,7.25,3.56l-.03,.09Z"/>
  <path class="cls-1" d="M431.65,374.95c-1.24-2.49-2.44-5-3.58-7.53-1.17-2.52-2.32-5.04-3.43-7.58-.83-1.85-1.75-3.65-2.53-5.51-2.79-6.56-5.42-13.18-7.97-19.82-1.14-2.94-2.36-5.87-3.57-8.75-1.52-3.72-3.04-7.46-4-11.4-.1-1.31,0-1.17,.92-.4,.47,.38,1.01,.98,1.63,1.71,.3,.37,.62,.77,.93,1.21,.15,.22,.31,.45,.47,.68,.13,.25,.26,.5,.4,.76,.9,1.84,1.82,3.68,2.67,5.54,.79,1.89,1.58,3.78,2.37,5.67,.79,1.89,1.56,3.79,2.31,5.7,.77,1.9,1.49,3.83,2.2,5.77,.85,2.32,1.85,4.63,2.87,6.94,1.04,2.3,2.13,4.6,3.15,6.91l3.45,7.56c1.2,2.5,2.34,5.03,3.58,7.5l2.26,4.59c.76,1.53,1.57,3.03,2.36,4.53,2.41,4.57,4.95,9.09,7.73,13.38,2.19,3.32,4.61,6.38,7.06,9.41,.54,.67,1.07,1.32,1.62,1.99,2.01,2.48,2.45,3.44,2.28,4.53-.04,.25-.04,.53-.12,.73-.26,.66-1.52,.01-3.34-1.64-5.34-4.94-9.69-11.23-13.64-17.68-1.42-2.42-2.86-4.85-4.2-7.32-1.32-2.48-2.7-4.94-3.95-7.45l.08-.05Z"/>
  <path class="cls-1" d="M458.69,395.91c3.15-11.38,4.79-23.29,5.55-35.22,.27-4.36,.29-8.73,.34-13.1,.07-7.7-.18-15.41-.84-23.08-.62-7.67-1.61-15.34-3.31-22.83-.75-3.32-1.69-6.61-2.85-9.79-1.16-3.18-2.55-6.27-4.3-9.03-1.12-1.77-2.41-3.42-3.93-4.72-.38-.32-.78-.6-1.17-.89l-.62-.36-.31-.18-.21-.09c-.27-.09-.52-.09-.81-.04-.3,.09-.65,.18-1,.44-.71,.46-1.42,1.15-2.06,1.93-.33,.39-.62,.82-.94,1.23l-.43,.66c-.17,.2-.32,.42-.47,.64l-.88,1.34-.83,1.39c-.54,.94-1.13,1.86-1.65,2.83-1.36,2.38-1.27,2.05-.85-.3,.22-1.17,.45-2.88,1.03-4.88,.31-1,.62-2.11,1.15-3.24,.56-1.11,1.22-2.28,2.27-3.42,.21-.26,.48-.5,.75-.74,.25-.25,.55-.48,.89-.71,.62-.44,1.44-.88,2.41-1.07,.98-.2,2.11-.07,3.04,.32l.35,.15c.12,.05,.16,.09,.24,.13l.45,.26c.29,.18,.6,.34,.88,.53,2.23,1.53,3.91,3.47,5.31,5.47,2.77,4.04,4.51,8.42,5.98,12.81,2.84,8.82,4.49,17.84,5.43,26.94,1.08,10.88,1.75,22.23,1.49,33.4-.34,12.26-1.5,24.54-4.1,36.58-1.65,7.39-3.79,14.74-7.21,21.62-1.3,2.6-2.82,5.12-4.66,7.44-1.84,2.3-4.02,4.44-6.68,5.93-1.3,.78-2.74,1.33-4.28,1.71-1.56,.34-3.29,.25-4.83-.36-1.54-.61-2.84-1.66-3.81-2.86-.96-1.2-1.76-2.5-2.36-3.84-.97-2.08-1.65-4.23-2.2-6.39-.55-2.16-.97-4.33-1.29-6.5-.65-4.35-.96-8.71-1.02-13.1-.04-1.93-.04-3.82,.03-5.77,.07-1.8,.2-3.3,.37-4.54,.17-1.25,.34-2.25,.54-3.06,.36-1.64,.82-2.55,1.36-3.25,.24-.32,.47-.75,.66-.92,.58-.59,.79,2.36,.66,7.5-.16,7.62-.03,15.5,1.19,23.22,.61,3.84,1.5,7.67,3.01,11,.75,1.64,1.72,3.13,2.82,4.05,1.11,.93,2.21,1.3,3.59,1.08,.5-.04,1.05-.24,1.6-.4,.28-.11,.57-.26,.86-.38,.29-.11,.57-.26,.85-.43,1.13-.58,2.15-1.43,3.16-2.29,1.96-1.83,3.65-4.1,5.1-6.55,2.9-4.94,4.91-10.56,6.49-16.28h.11Z"/>
  <path class="cls-1" d="M256.57,161.33c.13-.39,.49-.61,.83-.9,.11-.09,.36-.04,.39,.11,.05,.29,.1,.61,.1,.93,0,.09-.1,.89-.38,1.73-.34,.8-.75,1.6-.92,2.01-.35,.79-.76,1.54-1.19,2.27-.93,1.44-1.9,2.85-2.85,4.27-.21,.31-.46,.6-.73,.87-.95,.91-1.71,1.96-2.4,3.07-.12,.18-.26,.35-.28,.61-.03,.42-2.13,3.25-2.5,3.54-.9,.74-1.72,1.54-2.58,2.31-.13,.1-.2,.27-.43,.27-.54,.02-.71,.33-.96,.57-.35,.35-.7,.69-1.13,.98-.24,.12-.57,.16-.86,.24-.26,.07-.54-.3-.54-.39,.01-.27-.28-.27-.45-.37-.06-.04-.13-.08-.17-.13-.02-.03,.04-.87,.29-1.62,.22-.77,.45-1.57,.54-1.69-.02-.11,2.32-3.47,2.53-3.89,.12-.21,.34-.35,.54-.5,.1-.07,1.86-2.84,1.97-2.92,.47-.49,.81-1.09,1.5-1.4,.14-.06,.21-.18,.29-.29,.71-.92,1.57-1.73,2.38-2.57,.41-.43,.77-.91,1.15-1.36,.07-.08,.17-.14,.26-.21,.11-.09,.22-.17,.31-.27,.86-1.12,1.97-2.04,2.85-3.13,.23-.26,1.46-1.19,1.6-1.48,.14-.12,.8-.46,.84-.64Z"/>
  <path class="cls-1" d="M266.85,171.31c.03-.32,.29-.54,.54-.73,.08-.06,.26-.02,.29,.08,.06,.21,.12,.42,.17,.58,0,.06,.11,.55,.15,1.09,.04,.54,.09,1.15,.13,1.47,.07,.6,.12,1.2,.04,1.78l-.34,3.55c-.03,.26-.09,.52-.18,.77-.3,.85-.54,1.72-.64,2.62-.02,.15-.07,.3,.02,.46,.14,.28-.35,2.68-.51,2.96-.38,.72-.81,1.42-1.19,2.13-.06,.1-.05,.23-.21,.29-.38,.15-.39,.39-.49,.62-.13,.31-.35,.6-.56,.89-.11,.14-.32,.25-.49,.38-.15,.11-.49-.06-.52-.12-.08-.18-.29-.11-.44-.13-.05,0-.12-.02-.16-.04-.05-.03-.62-2.16-.53-2.35,0-.02,.08-.73,.16-1.48,.05-.75,.21-1.51,.21-1.67,.01-.17,.13-.31,.22-.46,.04-.07,.35-2.28,.38-2.37,.15-.44,.15-.91,.54-1.29,.08-.08,.08-.17,.1-.26,.16-.78,.52-1.51,.8-2.26,.15-.38,.23-.78,.35-1.17,.02-.07,.08-.13,.11-.2,.04-.08,.1-.17,.12-.26,.24-.93,.59-1.84,.85-2.77,.07-.21,.6-1.19,.65-1.44,.03-.14,.45-.54,.44-.67Z"/>
  <path class="cls-1" d="M280.76,166.14c-.22-.39-.14-.81,.02-1.23,.05-.13,.32-.22,.41-.12,.2,.22,.39,.43,.54,.59,.14,.21,1.45,2.2,1.92,2.91,.45,.68,.84,1.39,1.2,2.11l2.27,4.35c.17,.32,.3,.66,.4,1.01,.32,1.2,.76,2.36,1.34,3.47,.09,.18,.16,.39,.36,.52,.17,.11,.59,.94,.99,1.79,.41,.85,.68,1.76,.72,1.98,.12,1.11,.41,2.17,.53,3.28,.02,.16,.12,.3,.02,.49-.23,.44-.06,.73,.02,1.06,.07,.47,.12,.95,.14,1.44,0,.24-.08,.52-.12,.78-.04,.24-.42,.27-.49,.22-.19-.15-.3,.08-.44,.15-.05,.03-.11,.06-.15,.07-.05,0-.54-.52-1.13-1.05-.63-.51-1.13-1.11-1.19-1.24,0-.02-.13-.24-.32-.58-.19-.33-.44-.78-.67-1.25-.47-.93-.97-1.9-1.09-2.09-.12-.2-.13-.45-.17-.68-.04-.1-1.35-2.94-1.38-3.06-.18-.62-.51-1.19-.44-1.91,.01-.14-.05-.26-.09-.38-.44-1.02-.61-2.15-.88-3.23-.13-.56-.34-1.09-.5-1.63-.03-.1-.02-.21-.04-.31-.02-.13-.02-.27-.07-.39-.42-1.28-.71-2.61-1.2-3.86-.12-.28-.3-1.8-.43-2.13-.06-.19,0-.92-.1-1.07Z"/>
  <path class="cls-1" d="M284.25,298.71c-.09,.36-.46,.52-.89,.62-.14,.03-.43-.11-.44-.23-.01-.23-.04-.47-.04-.71,0-.14,.42-2.23,.49-2.98,.05-.74,.34-1.35,.6-1.98,.55-1.27,1.09-2.54,1.67-3.8,.13-.28,.32-.52,.54-.75,.74-.77,1.29-1.66,1.76-2.6,.08-.16,.19-.3,.16-.51-.06-.36,1.44-2.79,1.74-3.04,.71-.63,1.45-1.24,2.17-1.85,.1-.09,.15-.23,.35-.23,.47,0,.59-.27,.82-.45,.31-.26,.61-.52,1-.73,.23-.07,.54-.07,.78-.12,.22-.04,.4,.22,.4,.3-.01,.21,.21,.21,.33,.29,.04,.03,.1,.06,.13,.1,.1,.12-.12,2.66-.31,2.8,0,.01-.11,.2-.25,.47-.14,.28-.33,.65-.53,1.02-.36,.77-.81,1.53-.88,1.7-.08,.18-.26,.28-.41,.4-.07,.06-1.23,2.33-1.29,2.41-.33,.41-.49,.93-1.06,1.2-.11,.05-.15,.15-.21,.24-.45,.79-1.01,1.51-1.62,2.2-.3,.36-.53,.77-.79,1.15-.05,.07-.13,.12-.2,.18-.08,.08-.18,.14-.23,.23-.29,.47-.62,.91-.94,1.36-.32,.45-.59,.93-.91,1.38-.15,.2-1.12,1.06-1.25,1.32-.09,.14-.67,.45-.69,.6Z"/>
  <path class="cls-1" d="M291.16,320.46c-.34,.1-.52-.31-.59-1-.02-.22,.13-.84,.24-.91,.21-.14,.42-.27,.62-.36,.12-.04,1.86-.09,2.46-.17,.58-.06,1.13-.03,1.68,.03,1.12,.12,2.25,.18,3.37,.26,.25,.02,.49,.08,.73,.17,.81,.35,1.67,.38,2.52,.44,.14,0,.28,.05,.44-.07,.25-.2,2.54,.07,2.83,.21,.71,.34,1.44,.6,2.16,.92,.1,.04,.22,0,.31,.18,.2,.41,.43,.35,.66,.45,.31,.12,.63,.26,.94,.43,.15,.09,.3,.29,.45,.45,.14,.14,.03,.55-.02,.6-.15,.13-.05,.34-.04,.52,0,.06,0,.14,0,.19-.01,.05-.5,.3-1.03,.61-.27,.16-.54,.32-.75,.44-.22,.09-.38,.14-.43,.14-.03,0-.74,.06-1.5,.13-.75,.04-1.54,.06-1.7,.08-.17,.02-.33-.08-.49-.16-.07-.02-2.34,.06-2.43,.04-.46-.09-.94,0-1.34-.46-.08-.09-.17-.08-.27-.1-.79-.11-1.55-.41-2.31-.66-.39-.13-.79-.18-1.19-.27-.07-.02-.13-.08-.2-.12-.09-.05-.17-.11-.26-.13-.94-.19-1.84-.58-2.8-.7-.22-.03-1.17-.62-1.42-.64-.14-.01-.49-.58-.63-.54Z"/>
</svg>